# xmcd
# 
# Track frame offsets:
#     150
#     18343
#     35865
#     54058
# 
# Disc length: 952
# 
# Revision: 1
# Processed by: cddbd v1.5.2PL0 Copyright (c) Steve Scherf et al.
# Submitted via: fre:ac v1.0.31
# 
DISCID=2803b604
DTITLE=ハロー、ハッピーワールド！ - キミがいなくちゃっ！
DYEAR=2018
DGENRE=Anime
TTITLE0=キミがいなくちゃっ！
TTITLE1=わちゃ・もちゃ・ぺったん行進曲
TTITLE2=キミがいなくちゃっ！ -instrumental-
TTITLE3=わちゃ・もちゃ・ぺったん行進曲 -instrumental-
EXTD=
EXTT0=
EXTT1=
EXTT2=
EXTT3=
PLAYORDER=
